<svg xmlns="http://www.w3.org/2000/svg" width="1200" height="700" font-family="system-ui, -apple-system, sans-serif"><rect width="1200" height="700" fill="#fff"/><rect width="1200" height="64" fill="#fff" stroke="#f3f4f6" stroke-width="1"/><text x="28" y="40" fill="#E8175D" font-size="22" font-weight="900">🐷 Moonpig</text><text x="220" y="40" fill="#6b7280" font-size="14" font-weight="500">Cards</text><rect width="340" height="32" x="750" y="18" fill="#f9fafb" stroke="#e5e7eb" stroke-width="1" rx="16"/><text x="775" y="38" fill="#9ca3af" font-size="13">Search cards &amp; gifts…</text><circle cx="1150" cy="32" r="20" fill="#fff0f6"/><text x="1140" y="38" font-size="16">🧺</text><circle cx="1165" cy="15" r="9" fill="#E8175D"/><text x="1162" y="20" fill="#fff" font-size="10" font-weight="700">2</text><text x="40" y="104" fill="#111827" font-size="28" font-weight="900">Your Basket</text><text x="1090" y="104" fill="#9ca3af" font-size="13">Clear all</text><rect width="740" height="110" x="40" y="124" fill="#fff" stroke="#f3f4f6" stroke-width="1.5" rx="16"/><rect width="72" height="72" x="60" y="144" fill="#FFD6E7" rx="12"/><text x="96" y="192" font-size="28" text-anchor="middle">🎂</text><text x="152" y="160" fill="#111827" font-size="15" font-weight="600">Happy Birthday Sis 🎂</text><text x="152" y="178" fill="#6b7280" font-size="12" font-style="italic">&quot;Wishing you the most magical birthday ever!&quot;</text><text x="152" y="196" fill="#9ca3af" font-size="11">Birthday</text><rect width="90" height="28" x="152" y="208" fill="#fff" stroke="#e5e7eb" stroke-width="1.5" rx="8"/><text x="162" y="227" fill="#374151" font-size="14">−</text><text x="190" y="228" fill="#111827" font-size="14" font-weight="700" text-anchor="middle">1</text><text x="228" y="227" fill="#374151" font-size="14">+</text><text x="680" y="228" fill="#E8175D" font-size="16" font-weight="700">£3.99</text><text x="730" y="228" fill="#d1d5db" font-size="16">🗑</text><rect width="740" height="110" x="40" y="248" fill="#fff" stroke="#f3f4f6" stroke-width="1.5" rx="16"/><rect width="72" height="72" x="60" y="268" fill="#FFE8F0" rx="12"/><text x="96" y="316" font-size="28" text-anchor="middle">💕</text><text x="152" y="284" fill="#111827" font-size="15" font-weight="600">Happy Anniversary 💕</text><text x="152" y="302" fill="#6b7280" font-size="12" font-style="italic">&quot;To my amazing partner, thank you for everything&quot;</text><text x="152" y="320" fill="#9ca3af" font-size="11">Anniversary</text><rect width="90" height="28" x="152" y="332" fill="#fff" stroke="#e5e7eb" stroke-width="1.5" rx="8"/><text x="162" y="351" fill="#374151" font-size="14">−</text><text x="190" y="352" fill="#111827" font-size="14" font-weight="700" text-anchor="middle">2</text><text x="228" y="351" fill="#374151" font-size="14">+</text><text x="680" y="352" fill="#E8175D" font-size="16" font-weight="700">£9.98</text><text x="730" y="352" fill="#d1d5db" font-size="16">🗑</text><rect width="740" height="52" x="40" y="372" fill="#fff" stroke="#fce7f3" stroke-dasharray="6 3" stroke-width="1.5" rx="16"/><text x="410" y="403" fill="#E8175D" font-size="14" font-weight="600" text-anchor="middle">+ Add more cards</text><rect width="740" height="36" x="40" y="436" fill="#fffbeb" stroke="#fde68a" stroke-width="1" rx="8"/><text x="60" y="459" fill="#92400e" font-family="monospace" font-size="12">// TODO: Add promo code field</text><rect width="354" height="290" x="808" y="124" fill="#fff" stroke="#f3f4f6" stroke-width="1.5" rx="16"/><text x="828" y="158" fill="#111827" font-size="17" font-weight="700">Order Summary</text><line x1="828" x2="1142" y1="172" y2="172" stroke="#f3f4f6" stroke-width="1"/><text x="828" y="200" fill="#6b7280" font-size="14">Subtotal (3 items)</text><text x="1142" y="200" fill="#111827" font-size="14" font-weight="500" text-anchor="end">£13.97</text><text x="828" y="228" fill="#6b7280" font-size="14">Delivery</text><text x="1142" y="228" fill="#111827" font-size="14" font-weight="500" text-anchor="end">£2.99</text><line x1="828" x2="1142" y1="244" y2="244" stroke="#f3f4f6" stroke-width="1"/><text x="828" y="272" fill="#111827" font-size="18" font-weight="900">Total</text><text x="1142" y="272" fill="#E8175D" font-size="22" font-weight="900" text-anchor="end">£16.96</text><rect width="314" height="52" x="828" y="290" fill="#E8175D" rx="26"/><text x="985" y="322" fill="#fff" font-size="15" font-weight="700" text-anchor="middle">🔒 Checkout Securely</text><text x="985" y="362" fill="#9ca3af" font-size="12" text-anchor="middle">🔒 SSL encrypted checkout</text><text x="985" y="378" fill="#9ca3af" font-size="12" text-anchor="middle">💳 Visa, Mastercard, PayPal accepted</text></svg>