<svg xmlns="http://www.w3.org/2000/svg" width="1200" height="800" font-family="system-ui, -apple-system, sans-serif"><rect width="1200" height="800" fill="#fff"/><rect width="1200" height="64" fill="#fff" stroke="#f3f4f6" stroke-width="1"/><text x="28" y="40" fill="#E8175D" font-size="22" font-weight="900">🐷 Moonpig</text><text x="220" y="40" fill="#E8175D" font-size="14" font-weight="500">Cards</text><text x="285" y="40" fill="#6b7280" font-size="14" font-weight="500">Gifts</text><text x="340" y="40" fill="#6b7280" font-size="14" font-weight="500">Flowers</text><rect width="340" height="32" x="750" y="18" fill="#f9fafb" stroke="#e5e7eb" stroke-width="1" rx="16"/><text x="775" y="38" fill="#9ca3af" font-size="13">Search cards &amp; gifts…</text><circle cx="1150" cy="32" r="20" fill="#fff0f6"/><text x="1140" y="38" font-size="16">🧺</text><text x="40" y="104" fill="#111827" font-size="28" font-weight="900">Greeting Cards</text><text x="40" y="126" fill="#6b7280" font-size="14">12 cards available · Free personalisation on all cards</text><rect width="200" height="420" x="40" y="150" fill="#fff" stroke="#f3f4f6" stroke-width="1.5" rx="16"/><text x="60" y="180" fill="#111827" font-size="15" font-weight="700">Filter by</text><text x="60" y="210" fill="#6b7280" font-size="11" font-weight="700" letter-spacing=".05em">OCCASION</text><rect width="170" height="30" x="55" y="220" fill="#E8175D" rx="8"/><text x="66" y="240" fill="#fff" font-size="13" font-weight="600">All Occasions</text><rect width="170" height="28" x="55" y="256" fill="#fdf2f8" rx="8"/><text x="66" y="274" fill="#374151" font-size="13">Birthday</text><rect width="170" height="28" x="55" y="289" fill="#fdf2f8" rx="8"/><text x="66" y="307" fill="#374151" font-size="13">Anniversary</text><rect width="170" height="28" x="55" y="322" fill="#fdf2f8" rx="8"/><text x="66" y="340" fill="#374151" font-size="13">Thank You</text><rect width="170" height="28" x="55" y="355" fill="#fdf2f8" rx="8"/><text x="66" y="373" fill="#374151" font-size="13">New Baby</text><rect width="170" height="28" x="55" y="388" fill="#fdf2f8" rx="8"/><text x="66" y="406" fill="#374151" font-size="13">Get Well</text><rect width="170" height="28" x="55" y="421" fill="#fdf2f8" rx="8"/><text x="66" y="439" fill="#374151" font-size="13">Congratulations</text><text x="60" y="480" fill="#6b7280" font-size="11" font-weight="700" letter-spacing=".05em">MAX PRICE</text><rect width="160" height="6" x="60" y="492" fill="#fce7f3" rx="3"/><rect width="120" height="6" x="60" y="492" fill="#E8175D" rx="3"/><circle cx="180" cy="495" r="8" fill="#E8175D"/><text x="60" y="520" fill="#9ca3af" font-size="11">£2.00</text><text x="130" y="520" fill="#E8175D" font-size="11" font-weight="600">up to £7.50</text><rect width="210" height="200" x="264" y="148" fill="#fff" stroke="#f3f4f6" stroke-width="1.5" rx="16"/><rect width="210" height="108" x="264" y="148" fill="#FFD6E7" rx="16"/><text x="369" y="210" font-size="36" text-anchor="middle">🎂</text><text x="284" y="278" fill="#111827" font-size="13" font-weight="600">Happy Birthday Sis 🎂</text><text x="284" y="298" fill="#E8175D" font-size="16" font-weight="900">£3.99</text><text x="400" y="298" fill="#6b7280" font-size="11" text-anchor="end">Birthday</text><rect width="170" height="30" x="284" y="308" fill="#E8175D" rx="15"/><text x="369" y="328" fill="#fff" font-size="13" font-weight="600" text-anchor="middle">Personalise</text><rect width="210" height="200" x="490" y="148" fill="#fff" stroke="#f3f4f6" stroke-width="1.5" rx="16"/><rect width="210" height="108" x="490" y="148" fill="#D6F5FF" rx="16"/><text x="595" y="210" font-size="36" text-anchor="middle">🥳</text><text x="510" y="278" fill="#111827" font-size="13" font-weight="600">To My Best Friend 🥳</text><text x="510" y="298" fill="#E8175D" font-size="16" font-weight="900">£3.49</text><rect width="170" height="30" x="510" y="308" fill="#E8175D" rx="15"/><text x="595" y="328" fill="#fff" font-size="13" font-weight="600" text-anchor="middle">Personalise</text><rect width="210" height="200" x="716" y="148" fill="#fff" stroke="#f3f4f6" stroke-width="1.5" rx="16"/><rect width="210" height="108" x="716" y="148" fill="#FFE8F0" rx="16"/><text x="821" y="210" font-size="36" text-anchor="middle">💕</text><text x="736" y="278" fill="#111827" font-size="13" font-weight="600">Happy Anniversary 💕</text><text x="736" y="298" fill="#E8175D" font-size="16" font-weight="900">£4.99</text><rect width="170" height="30" x="736" y="308" fill="#E8175D" rx="15"/><text x="821" y="328" fill="#fff" font-size="13" font-weight="600" text-anchor="middle">Personalise</text><rect width="210" height="200" x="942" y="148" fill="#fff" stroke="#f3f4f6" stroke-width="1.5" rx="16"/><rect width="210" height="108" x="942" y="148" fill="#F5FFD6" rx="16"/><text x="1047" y="210" font-size="36" text-anchor="middle">🌸</text><text x="962" y="278" fill="#111827" font-size="13" font-weight="600">Thank You Bunches 🌸</text><text x="962" y="298" fill="#E8175D" font-size="16" font-weight="900">£3.49</text><rect width="170" height="30" x="962" y="308" fill="#E8175D" rx="15"/><text x="1047" y="328" fill="#fff" font-size="13" font-weight="600" text-anchor="middle">Personalise</text><rect width="210" height="200" x="264" y="368" fill="#fff" stroke="#f3f4f6" stroke-width="1.5" rx="16"/><rect width="210" height="108" x="264" y="368" fill="#D6EAFF" rx="16"/><text x="369" y="430" font-size="36" text-anchor="middle">🍼</text><text x="284" y="498" fill="#111827" font-size="13" font-weight="600">It&apos;s a Boy! 🍼</text><text x="284" y="518" fill="#E8175D" font-size="16" font-weight="900">£3.99</text><rect width="170" height="30" x="284" y="528" fill="#E8175D" rx="15"/><text x="369" y="548" fill="#fff" font-size="13" font-weight="600" text-anchor="middle">Personalise</text><rect width="210" height="200" x="490" y="368" fill="#fff" stroke="#f3f4f6" stroke-width="1.5" rx="16"/><rect width="210" height="108" x="490" y="368" fill="#FFE0F0" rx="16"/><text x="595" y="430" font-size="36" text-anchor="middle">🌷</text><text x="510" y="498" fill="#111827" font-size="13" font-weight="600">Baby Girl Arrived 🌷</text><text x="510" y="518" fill="#E8175D" font-size="16" font-weight="900">£3.99</text><rect width="170" height="30" x="510" y="528" fill="#E8175D" rx="15"/><text x="595" y="548" fill="#fff" font-size="13" font-weight="600" text-anchor="middle">Personalise</text><rect width="210" height="200" x="716" y="368" fill="#fff" stroke="#f3f4f6" stroke-width="1.5" rx="16"/><rect width="210" height="108" x="716" y="368" fill="#FFFDE7" rx="16"/><text x="821" y="430" font-size="36" text-anchor="middle">🌻</text><text x="736" y="498" fill="#111827" font-size="13" font-weight="600">Get Well Soon 🌻</text><text x="736" y="518" fill="#E8175D" font-size="16" font-weight="900">£3.49</text><rect width="170" height="30" x="736" y="528" fill="#E8175D" rx="15"/><text x="821" y="548" fill="#fff" font-size="13" font-weight="600" text-anchor="middle">Personalise</text><rect width="210" height="200" x="942" y="368" fill="#fff" stroke="#f3f4f6" stroke-width="1.5" rx="16"/><rect width="210" height="108" x="942" y="368" fill="#F3E5F5" rx="16"/><text x="1047" y="430" font-size="36" text-anchor="middle">🎉</text><text x="962" y="498" fill="#111827" font-size="13" font-weight="600">Congratulations! 🎉</text><text x="962" y="518" fill="#E8175D" font-size="16" font-weight="900">£4.49</text><rect width="170" height="30" x="962" y="528" fill="#E8175D" rx="15"/><text x="1047" y="548" fill="#fff" font-size="13" font-weight="600" text-anchor="middle">Personalise</text><rect width="210" height="180" x="264" y="588" fill="#fff" stroke="#f3f4f6" stroke-width="1.5" rx="16"/><rect width="210" height="95" x="264" y="588" fill="#E8F5E9" rx="16"/><text x="369" y="642" font-size="36" text-anchor="middle">🏆</text><text x="284" y="706" fill="#111827" font-size="13" font-weight="600">Best Dad Ever 🏆</text><text x="284" y="726" fill="#E8175D" font-size="16" font-weight="900">£3.99</text><rect width="170" height="28" x="284" y="736" fill="#E8175D" rx="14"/><text x="369" y="755" fill="#fff" font-size="13" font-weight="600" text-anchor="middle">Personalise</text><rect width="210" height="180" x="490" y="588" fill="#fff" stroke="#f3f4f6" stroke-width="1.5" rx="16"/><rect width="210" height="95" x="490" y="588" fill="#FFF8E1" rx="16"/><text x="595" y="642" font-size="36" text-anchor="middle">💐</text><text x="510" y="706" fill="#111827" font-size="13" font-weight="600">World&apos;s Best Mum 💐</text><text x="510" y="726" fill="#E8175D" font-size="16" font-weight="900">£4.49</text><rect width="170" height="28" x="510" y="736" fill="#E8175D" rx="14"/><text x="595" y="755" fill="#fff" font-size="13" font-weight="600" text-anchor="middle">Personalise</text></svg>