<svg width="1200" height="800" xmlns="http://www.w3.org/2000/svg" font-family="system-ui, -apple-system, sans-serif">
  <rect width="1200" height="800" fill="#ffffff"/>

  <!-- Navbar -->
  <rect width="1200" height="64" fill="#ffffff" stroke="#f3f4f6" stroke-width="1"/>
  <text x="28" y="40" font-size="22" font-weight="900" fill="#E8175D">🐷 Moonpig</text>
  <text x="220" y="40" font-size="14" font-weight="500" fill="#E8175D">Cards</text>
  <text x="285" y="40" font-size="14" font-weight="500" fill="#6b7280">Gifts</text>
  <text x="340" y="40" font-size="14" font-weight="500" fill="#6b7280">Flowers</text>
  <rect x="750" y="18" width="340" height="32" rx="16" fill="#f9fafb" stroke="#e5e7eb" stroke-width="1"/>
  <text x="775" y="38" font-size="13" fill="#9ca3af">Search cards &amp; gifts…</text>
  <circle cx="1150" cy="32" r="20" fill="#fff0f6"/>
  <text x="1140" y="38" font-size="16">🧺</text>

  <!-- Page Header -->
  <text x="40" y="104" font-size="28" font-weight="900" fill="#111827">Greeting Cards</text>
  <text x="40" y="126" font-size="14" fill="#6b7280">12 cards available · Free personalisation on all cards</text>

  <!-- Sidebar -->
  <rect x="40" y="150" width="200" height="420" rx="16" fill="#ffffff" stroke="#f3f4f6" stroke-width="1.5"/>
  <text x="60" y="180" font-size="15" font-weight="700" fill="#111827">Filter by</text>
  <text x="60" y="210" font-size="11" font-weight="700" fill="#6b7280" letter-spacing="0.05em">OCCASION</text>

  <!-- Occasion filters -->
  <rect x="55" y="220" width="170" height="30" rx="8" fill="#E8175D"/>
  <text x="66" y="240" font-size="13" font-weight="600" fill="white">All Occasions</text>
  <rect x="55" y="256" width="170" height="28" rx="8" fill="#fdf2f8"/>
  <text x="66" y="274" font-size="13" fill="#374151">Birthday</text>
  <rect x="55" y="289" width="170" height="28" rx="8" fill="#fdf2f8"/>
  <text x="66" y="307" font-size="13" fill="#374151">Anniversary</text>
  <rect x="55" y="322" width="170" height="28" rx="8" fill="#fdf2f8"/>
  <text x="66" y="340" font-size="13" fill="#374151">Thank You</text>
  <rect x="55" y="355" width="170" height="28" rx="8" fill="#fdf2f8"/>
  <text x="66" y="373" font-size="13" fill="#374151">New Baby</text>
  <rect x="55" y="388" width="170" height="28" rx="8" fill="#fdf2f8"/>
  <text x="66" y="406" font-size="13" fill="#374151">Get Well</text>
  <rect x="55" y="421" width="170" height="28" rx="8" fill="#fdf2f8"/>
  <text x="66" y="439" font-size="13" fill="#374151">Congratulations</text>

  <!-- Price range -->
  <text x="60" y="480" font-size="11" font-weight="700" fill="#6b7280" letter-spacing="0.05em">MAX PRICE</text>
  <rect x="60" y="492" width="160" height="6" rx="3" fill="#fce7f3"/>
  <rect x="60" y="492" width="120" height="6" rx="3" fill="#E8175D"/>
  <circle cx="180" cy="495" r="8" fill="#E8175D"/>
  <text x="60" y="520" font-size="11" fill="#9ca3af">£2.00</text>
  <text x="130" y="520" font-size="11" font-weight="600" fill="#E8175D">up to £7.50</text>

  <!-- Cards grid (4 columns × 3 rows) -->
  <!-- Row 1 -->
  <rect x="264" y="148" width="210" height="200" rx="16" fill="#ffffff" stroke="#f3f4f6" stroke-width="1.5"/>
  <rect x="264" y="148" width="210" height="108" rx="16" fill="#FFD6E7"/>
  <text x="369" y="210" font-size="36" text-anchor="middle">🎂</text>
  <text x="284" y="278" font-size="13" font-weight="600" fill="#111827">Happy Birthday Sis 🎂</text>
  <text x="284" y="298" font-size="16" font-weight="900" fill="#E8175D">£3.99</text>
  <text x="400" y="298" font-size="11" fill="#6b7280" text-anchor="end">Birthday</text>
  <rect x="284" y="308" width="170" height="30" rx="15" fill="#E8175D"/>
  <text x="369" y="328" font-size="13" font-weight="600" fill="white" text-anchor="middle">Personalise</text>

  <rect x="490" y="148" width="210" height="200" rx="16" fill="#ffffff" stroke="#f3f4f6" stroke-width="1.5"/>
  <rect x="490" y="148" width="210" height="108" rx="16" fill="#D6F5FF"/>
  <text x="595" y="210" font-size="36" text-anchor="middle">🥳</text>
  <text x="510" y="278" font-size="13" font-weight="600" fill="#111827">To My Best Friend 🥳</text>
  <text x="510" y="298" font-size="16" font-weight="900" fill="#E8175D">£3.49</text>
  <rect x="510" y="308" width="170" height="30" rx="15" fill="#E8175D"/>
  <text x="595" y="328" font-size="13" font-weight="600" fill="white" text-anchor="middle">Personalise</text>

  <rect x="716" y="148" width="210" height="200" rx="16" fill="#ffffff" stroke="#f3f4f6" stroke-width="1.5"/>
  <rect x="716" y="148" width="210" height="108" rx="16" fill="#FFE8F0"/>
  <text x="821" y="210" font-size="36" text-anchor="middle">💕</text>
  <text x="736" y="278" font-size="13" font-weight="600" fill="#111827">Happy Anniversary 💕</text>
  <text x="736" y="298" font-size="16" font-weight="900" fill="#E8175D">£4.99</text>
  <rect x="736" y="308" width="170" height="30" rx="15" fill="#E8175D"/>
  <text x="821" y="328" font-size="13" font-weight="600" fill="white" text-anchor="middle">Personalise</text>

  <rect x="942" y="148" width="210" height="200" rx="16" fill="#ffffff" stroke="#f3f4f6" stroke-width="1.5"/>
  <rect x="942" y="148" width="210" height="108" rx="16" fill="#F5FFD6"/>
  <text x="1047" y="210" font-size="36" text-anchor="middle">🌸</text>
  <text x="962" y="278" font-size="13" font-weight="600" fill="#111827">Thank You Bunches 🌸</text>
  <text x="962" y="298" font-size="16" font-weight="900" fill="#E8175D">£3.49</text>
  <rect x="962" y="308" width="170" height="30" rx="15" fill="#E8175D"/>
  <text x="1047" y="328" font-size="13" font-weight="600" fill="white" text-anchor="middle">Personalise</text>

  <!-- Row 2 -->
  <rect x="264" y="368" width="210" height="200" rx="16" fill="#ffffff" stroke="#f3f4f6" stroke-width="1.5"/>
  <rect x="264" y="368" width="210" height="108" rx="16" fill="#D6EAFF"/>
  <text x="369" y="430" font-size="36" text-anchor="middle">🍼</text>
  <text x="284" y="498" font-size="13" font-weight="600" fill="#111827">It's a Boy! 🍼</text>
  <text x="284" y="518" font-size="16" font-weight="900" fill="#E8175D">£3.99</text>
  <rect x="284" y="528" width="170" height="30" rx="15" fill="#E8175D"/>
  <text x="369" y="548" font-size="13" font-weight="600" fill="white" text-anchor="middle">Personalise</text>

  <rect x="490" y="368" width="210" height="200" rx="16" fill="#ffffff" stroke="#f3f4f6" stroke-width="1.5"/>
  <rect x="490" y="368" width="210" height="108" rx="16" fill="#FFE0F0"/>
  <text x="595" y="430" font-size="36" text-anchor="middle">🌷</text>
  <text x="510" y="498" font-size="13" font-weight="600" fill="#111827">Baby Girl Arrived 🌷</text>
  <text x="510" y="518" font-size="16" font-weight="900" fill="#E8175D">£3.99</text>
  <rect x="510" y="528" width="170" height="30" rx="15" fill="#E8175D"/>
  <text x="595" y="548" font-size="13" font-weight="600" fill="white" text-anchor="middle">Personalise</text>

  <rect x="716" y="368" width="210" height="200" rx="16" fill="#ffffff" stroke="#f3f4f6" stroke-width="1.5"/>
  <rect x="716" y="368" width="210" height="108" rx="16" fill="#FFFDE7"/>
  <text x="821" y="430" font-size="36" text-anchor="middle">🌻</text>
  <text x="736" y="498" font-size="13" font-weight="600" fill="#111827">Get Well Soon 🌻</text>
  <text x="736" y="518" font-size="16" font-weight="900" fill="#E8175D">£3.49</text>
  <rect x="736" y="528" width="170" height="30" rx="15" fill="#E8175D"/>
  <text x="821" y="548" font-size="13" font-weight="600" fill="white" text-anchor="middle">Personalise</text>

  <rect x="942" y="368" width="210" height="200" rx="16" fill="#ffffff" stroke="#f3f4f6" stroke-width="1.5"/>
  <rect x="942" y="368" width="210" height="108" rx="16" fill="#F3E5F5"/>
  <text x="1047" y="430" font-size="36" text-anchor="middle">🎉</text>
  <text x="962" y="498" font-size="13" font-weight="600" fill="#111827">Congratulations! 🎉</text>
  <text x="962" y="518" font-size="16" font-weight="900" fill="#E8175D">£4.49</text>
  <rect x="962" y="528" width="170" height="30" rx="15" fill="#E8175D"/>
  <text x="1047" y="548" font-size="13" font-weight="600" fill="white" text-anchor="middle">Personalise</text>

  <!-- Row 3 partial -->
  <rect x="264" y="588" width="210" height="180" rx="16" fill="#ffffff" stroke="#f3f4f6" stroke-width="1.5"/>
  <rect x="264" y="588" width="210" height="95" rx="16" fill="#E8F5E9"/>
  <text x="369" y="642" font-size="36" text-anchor="middle">🏆</text>
  <text x="284" y="706" font-size="13" font-weight="600" fill="#111827">Best Dad Ever 🏆</text>
  <text x="284" y="726" font-size="16" font-weight="900" fill="#E8175D">£3.99</text>
  <rect x="284" y="736" width="170" height="28" rx="14" fill="#E8175D"/>
  <text x="369" y="755" font-size="13" font-weight="600" fill="white" text-anchor="middle">Personalise</text>

  <rect x="490" y="588" width="210" height="180" rx="16" fill="#ffffff" stroke="#f3f4f6" stroke-width="1.5"/>
  <rect x="490" y="588" width="210" height="95" rx="16" fill="#FFF8E1"/>
  <text x="595" y="642" font-size="36" text-anchor="middle">💐</text>
  <text x="510" y="706" font-size="13" font-weight="600" fill="#111827">World's Best Mum 💐</text>
  <text x="510" y="726" font-size="16" font-weight="900" fill="#E8175D">£4.49</text>
  <rect x="510" y="736" width="170" height="28" rx="14" fill="#E8175D"/>
  <text x="595" y="755" font-size="13" font-weight="600" fill="white" text-anchor="middle">Personalise</text>
</svg>
