<svg xmlns="http://www.w3.org/2000/svg" width="1200" height="800" font-family="system-ui, -apple-system, sans-serif"><rect width="1200" height="800" fill="#fff"/><rect width="1200" height="64" fill="#fff" stroke="#f3f4f6" stroke-width="1"/><text x="28" y="40" fill="#E8175D" font-size="22" font-weight="900">🐷 Moonpig</text><text x="220" y="40" fill="#6b7280" font-size="14" font-weight="500">Cards</text><text x="285" y="40" fill="#6b7280" font-size="14" font-weight="500">Gifts</text><text x="340" y="40" fill="#6b7280" font-size="14" font-weight="500">Flowers</text><text x="405" y="40" fill="#6b7280" font-size="14" font-weight="500">Offers</text><rect width="340" height="32" x="750" y="18" fill="#f9fafb" stroke="#e5e7eb" stroke-width="1" rx="16"/><text x="775" y="38" fill="#9ca3af" font-size="13">Search cards &amp; gifts…</text><circle cx="1150" cy="32" r="20" fill="#fff0f6" stroke="#fce7f3" stroke-width="1"/><text x="1140" y="38" font-size="16">🧺</text><rect width="1200" height="340" x="0" y="64" fill="url(#heroGrad)"/><defs><linearGradient id="heroGrad" x1="0%" x2="100%" y1="0%" y2="100%"><stop offset="0%" style="stop-color:#fdf2f8;stop-opacity:1"/><stop offset="100%" style="stop-color:#fff1f2;stop-opacity:1"/></linearGradient></defs><rect width="160" height="28" x="40" y="104" fill="#E8175D" rx="14"/><text x="60" y="122" fill="#fff" font-size="12" font-weight="600">✨ Free Personalisation</text><text x="40" y="170" fill="#111827" font-size="40" font-weight="900">Send something</text><text x="40" y="218" fill="#E8175D" font-size="40" font-weight="900">they&apos;ll never forget</text><text x="40" y="260" fill="#6b7280" font-size="16">Personalised greeting cards, flowers and gifts delivered direct.</text><text x="40" y="282" fill="#6b7280" font-size="16">From just £3.49 — because everyone deserves to feel special.</text><rect width="180" height="48" x="40" y="310" fill="#E8175D" rx="24"/><text x="78" y="340" fill="#fff" font-size="15" font-weight="700">Shop Cards →</text><rect width="180" height="48" x="238" y="310" fill="#fff" stroke="#E8175D" stroke-width="2" rx="24"/><text x="268" y="340" fill="#E8175D" font-size="15" font-weight="700">Browse Gifts</text><rect width="240" height="130" x="660" y="90" fill="#FFD6E7" rx="16"/><text x="760" y="162" font-size="42" text-anchor="middle">🎂</text><text x="760" y="200" fill="#C4124F" font-size="11" font-weight="600" text-anchor="middle">Happy Birthday Sis</text><rect width="240" height="130" x="920" y="90" fill="#D6F5FF" rx="16"/><text x="1020" y="162" font-size="42" text-anchor="middle">🥳</text><text x="1020" y="200" fill="#06C" font-size="11" font-weight="600" text-anchor="middle">To My Best Friend</text><rect width="240" height="130" x="660" y="235" fill="#FFE8F0" rx="16"/><text x="760" y="307" font-size="42" text-anchor="middle">💕</text><text x="760" y="345" fill="#E8175D" font-size="11" font-weight="600" text-anchor="middle">Happy Anniversary</text><rect width="240" height="130" x="920" y="235" fill="#F5FFD6" rx="16"/><text x="1020" y="307" font-size="42" text-anchor="middle">🌸</text><text x="1020" y="345" fill="#558B2F" font-size="11" font-weight="600" text-anchor="middle">Thank You Bunches</text><rect width="1200" height="44" x="0" y="404" fill="#E8175D"/><text x="200" y="431" fill="#fff" font-size="13" font-weight="500">🚚 Next Day Delivery Available</text><text x="510" y="431" fill="#fff" font-size="13" font-weight="500">⭐ 4.8/5 from 20M+ reviews</text><text x="820" y="431" fill="#fff" font-size="13" font-weight="500">🛡️ 100% Satisfaction Guarantee</text><text x="40" y="480" fill="#111827" font-size="22" font-weight="900">Shop by Occasion</text><text x="40" y="502" fill="#6b7280" font-size="14">Whatever the moment, we&apos;ve got the perfect card.</text><rect width="200" height="100" x="40" y="518" fill="#FFD6E7" rx="16"/><text x="140" y="568" font-size="28" text-anchor="middle">🎂</text><text x="140" y="598" fill="#C4124F" font-size="11" font-weight="600" text-anchor="middle">Birthday Cards</text><rect width="200" height="100" x="255" y="518" fill="#FFE8F0" rx="16"/><text x="355" y="568" font-size="28" text-anchor="middle">💕</text><text x="355" y="598" fill="#E8175D" font-size="11" font-weight="600" text-anchor="middle">Anniversary Cards</text><rect width="200" height="100" x="470" y="518" fill="#F5FFD6" rx="16"/><text x="570" y="568" font-size="28" text-anchor="middle">🌸</text><text x="570" y="598" fill="#558B2F" font-size="11" font-weight="600" text-anchor="middle">Thank You Cards</text><rect width="200" height="100" x="685" y="518" fill="#FFF8E1" rx="16"/><text x="785" y="568" font-size="28" text-anchor="middle">💐</text><text x="785" y="598" fill="#E65100" font-size="11" font-weight="600" text-anchor="middle">Flowers</text><rect width="200" height="100" x="900" y="518" fill="#F3E5F5" rx="16"/><text x="1000" y="568" font-size="28" text-anchor="middle">🎁</text><text x="1000" y="598" fill="#7B1FA2" font-size="11" font-weight="600" text-anchor="middle">Gifts</text><rect width="1200" height="164" x="0" y="636" fill="#fdf2f8"/><text x="40" y="672" fill="#111827" font-size="22" font-weight="900">🔥 Trending Now</text><text x="40" y="692" fill="#6b7280" font-size="12">Most loved cards this week</text><text x="1100" y="672" fill="#E8175D" font-size="13" font-weight="600">See all →</text><rect width="160" height="86" x="40" y="700" fill="#FFD6E7" rx="12"/><text x="120" y="748" font-size="22" text-anchor="middle">🎂</text><rect width="160" height="86" x="215" y="700" fill="#D6F5FF" rx="12"/><text x="295" y="748" font-size="22" text-anchor="middle">🥳</text><rect width="160" height="86" x="390" y="700" fill="#FFE8F0" rx="12"/><text x="470" y="748" font-size="22" text-anchor="middle">💕</text><rect width="160" height="86" x="565" y="700" fill="#D6EAFF" rx="12"/><text x="645" y="748" font-size="22" text-anchor="middle">🍼</text><rect width="160" height="86" x="740" y="700" fill="#F3E5F5" rx="12"/><text x="820" y="748" font-size="22" text-anchor="middle">🎉</text><rect width="160" height="86" x="915" y="700" fill="#FFF8E1" rx="12"/><text x="995" y="748" font-size="22" text-anchor="middle">💐</text></svg>