<svg xmlns="http://www.w3.org/2000/svg" width="1200" height="800" font-family="system-ui, -apple-system, sans-serif"><rect width="1200" height="800" fill="#fff"/><rect width="1200" height="64" fill="#fff" stroke="#f3f4f6" stroke-width="1"/><text x="28" y="40" fill="#E8175D" font-size="22" font-weight="900">🐷 Moonpig</text><text x="220" y="40" fill="#6b7280" font-size="14" font-weight="500">Cards</text><rect width="340" height="32" x="750" y="18" fill="#f9fafb" stroke="#e5e7eb" stroke-width="1" rx="16"/><text x="775" y="38" fill="#9ca3af" font-size="13">Search cards &amp; gifts…</text><circle cx="1150" cy="32" r="20" fill="#fff0f6"/><text x="1140" y="38" font-size="16">🧺</text><circle cx="1165" cy="15" r="9" fill="#E8175D"/><text x="1162" y="20" fill="#fff" font-size="10" font-weight="700">1</text><text x="40" y="92" fill="#9ca3af" font-size="13">Home / Cards / Happy Birthday Sis 🎂</text><rect width="480" height="320" x="40" y="112" fill="#FFD6E7" rx="24"/><circle cx="480" cy="115" r="80" fill="#C4124F" opacity=".12"/><circle cx="60" cy="400" r="110" fill="#C4124F" opacity=".08"/><text x="280" y="280" font-size="100" text-anchor="middle">🎂</text><text x="280" y="400" fill="#C4124F" font-size="18" font-weight="700" text-anchor="middle">Happy Birthday Sis 🎂</text><rect width="480" height="110" x="40" y="450" fill="#FFD6E7" stroke="#C4124F" stroke-dasharray="6 4" stroke-opacity=".4" stroke-width="1.5" opacity=".5" rx="16"/><text x="60" y="474" fill="#C4124F" font-size="10" font-weight="700" letter-spacing=".08em">YOUR MESSAGE PREVIEW</text><text x="60" y="498" fill="#374151" font-size="14" font-style="italic">&quot;Wishing you the most magical birthday</text><text x="60" y="518" fill="#374151" font-size="14" font-style="italic">ever! Hope it&apos;s filled with cake 🎂</text><text x="60" y="538" fill="#374151" font-size="14" font-style="italic">and joy. Love you loads! 💕&quot;</text><rect width="72" height="22" x="40" y="74" fill="#fdf2f8" stroke="#fce7f3" stroke-width="1" rx="11"/><text x="557" y="92" fill="#E8175D" font-size="11" font-weight="600">Birthday</text><text x="548" y="136" fill="#111827" font-size="28" font-weight="900">Happy Birthday Sis 🎂</text><text x="548" y="170" fill="#6b7280" font-size="14">A gorgeous birthday card for your amazing</text><text x="548" y="190" fill="#6b7280" font-size="14">sister. Tell her how much she means to you.</text><text x="548" y="234" fill="#E8175D" font-size="40" font-weight="900">£3.99</text><text x="660" y="234" fill="#9ca3af" font-size="13">+ £2.99 delivery</text><text x="548" y="276" fill="#374151" font-size="14" font-weight="600">✍️ Add your personal message</text><rect width="590" height="100" x="548" y="288" fill="#f9fafb" stroke="#e5e7eb" stroke-width="1.5" rx="12"/><text x="564" y="314" fill="#9ca3af" font-size="13">Write something heartfelt… e.g. Happy Birthday!</text><text x="564" y="334" fill="#9ca3af" font-size="13">Hope your day is as amazing as you are! 🎉</text><text x="1120" y="380" fill="#9ca3af" font-size="11" text-anchor="end">0/300</text><text x="548" y="420" fill="#374151" font-size="14" font-weight="600">Quantity</text><rect width="110" height="36" x="640" y="402" fill="#fff" stroke="#e5e7eb" stroke-width="1.5" rx="10"/><text x="648" y="425" fill="#374151" font-size="18">‹</text><text x="685" y="426" fill="#111827" font-size="15" font-weight="700" text-anchor="middle">1</text><text x="732" y="425" fill="#374151" font-size="18">›</text><rect width="590" height="52" x="548" y="454" fill="#E8175D" rx="26"/><text x="843" y="485" fill="#fff" font-size="16" font-weight="700" text-anchor="middle">🧺 Add to Basket — £3.99</text><rect width="590" height="100" x="548" y="522" fill="#f9fafb" rx="16"/><text x="568" y="550" fill="#374151" font-size="13">🚚 <tspan font-weight="700">Next Day Delivery</tspan> available on orders before 9pm</text><text x="568" y="574" fill="#374151" font-size="13">📦 <tspan font-weight="700">Standard Delivery</tspan> £2.99 — arrives in 2–3 days</text><text x="568" y="598" fill="#374151" font-size="13">✅ <tspan font-weight="700">Satisfaction Guaranteed</tspan> — not happy? We&apos;ll resend free</text><rect width="590" height="36" x="548" y="638" fill="#fffbeb" stroke="#fde68a" stroke-width="1" rx="8"/><text x="568" y="661" fill="#92400e" font-family="monospace" font-size="12">// TODO: Add Copilot-suggested add-ons (e.g. gift wrap, balloon)</text></svg>